inDegrees=yes
name=ik_appendData_table_yaw
DataType=double
version=3
OpenSimVersion=4.5
endheader
time	pelvis_tilt	pelvis_list	pelvis_rotation	pelvis_tx	pelvis_ty	pelvis_tz	hip_flexion_r	hip_adduction_r	hip_rotation_r	knee_angle_r	knee_angle_r_beta	ankle_angle_r	subtalar_angle_r	mtp_angle_r	hip_flexion_l	hip_adduction_l	hip_rotation_l	knee_angle_l	knee_angle_l_beta	ankle_angle_l	subtalar_angle_l	mtp_angle_l	lumbar_extension	lumbar_bending	lumbar_rotation	arm_flex_r	arm_add_r	arm_rot_r	elbow_flex_r	pro_sup_r	wrist_flex_r	wrist_dev_r	arm_flex_l	arm_add_l	arm_rot_l	elbow_flex_l	pro_sup_l	wrist_flex_l	wrist_dev_l
50	-2.417208511609277	89.91132248030878	-4.533986202768792	0	0.9399999999999999	0	44.64333884032636	-10.03687661361588	0	59.95252261876748	1.046368914573866	-5.004803153346315	0	0	44.64333884032636	-10.03687661361588	0	59.95252261876748	1.046368914573866	-5.004803153346315	0	0	1.158533752072561	0.1308260332857407	5.823906964017962	0	-12.54995128161859	0	76.0215782687646	44.94386301832973	0	0	-2.045443687938678	3.975560273798694	-44.59121427826842	3.154043127585808	44.94386301832973	0	0
51	-2.420697636659273	89.91090922412535	-4.528468345594217	0	0.9399999999999999	0	44.6448489229954	-10.03649449848607	0	59.9527210251001	1.046372377417627	-5.004743256036317	0	0	44.6448489229954	-10.03649449848607	0	59.9527210251001	1.046372377417627	-5.004743256036317	0	0	1.140287100011532	0.1378071638725801	5.818890662904902	0	-12.55621980197669	0	76.01725339779294	44.9443565652228	0	0	-3.489145575884698	4.466631446320327	-47.01173944871809	4.982896468923454	44.9443565652228	0	0
52	-2.413338785807644	89.91096419231991	-4.532021904562587	0	0.9399999999999999	0	44.64500599144583	-10.03643798034172	0	59.95273745397243	1.046372664155541	-5.004733669864784	0	0	44.64500599144583	-10.03643798034172	0	59.95273745397243	1.046372664155541	-5.004733669864784	0	0	1.14702930339631	0.1397873833667385	5.816765349896882	0	-12.55677263666476	0	76.01680351704346	44.94442470522297	0	0	-2.802071371847644	4.977990431203374	-47.78761274638313	3.972884996858387	44.94442470522297	0	0
53	-2.411643855158384	89.91093715329478	-4.537651794035031	0	0.9399999999999999	0	44.64514827883959	-10.036386835485	0	59.95275233856753	1.046372923940734	-5.004724998948009	0	0	44.64514827883959	-10.036386835485	0	59.95275233856753	1.046372923940734	-5.004724998948009	0	0	1.146499331931745	0.1311464554324066	5.818435866298798	0	-12.55727355917727	0	76.01639597277973	44.94448638602719	0	0	-3.316700196530785	4.503974495246959	-48.22456707002279	4.443476868821375	44.94448638602719	0	0
54	-2.4146288299946	89.91064238584673	-4.538609839389402	0	0.9399999999999999	0	44.64527794768287	-10.03634036362217	0	59.95276592644755	1.046373161093978	-5.004717126446359	0	0	44.64527794768287	-10.03634036362217	0	59.95276592644755	1.046373161093978	-5.004717126446359	0	0	1.140437075269076	0.1445683711920193	5.826981754337338	0	-12.55773067480678	0	76.01602457125416	44.94454246632777	0	0	-4.672543904810104	4.923041998228345	-47.75072924332328	5.935500785957168	44.94454246632777	0	0
55	-2.147544928675848	89.91098342963376	-4.802582331440371	0	0.9399999999999999	0	44.65078357454606	-10.03432178778317	0	59.95332153097252	1.046382858222278	-5.004380605201134	0	0	44.65078357454606	-10.03432178778317	0	59.95332153097252	1.046382858222278	-5.004380605201134	0	0	1.14306161485575	0.135667993144782	5.808039108116907	0	-12.57631861956831	0	76.00025502552572	44.94699343150516	0	0	-3.769169671177592	3.955522322872216	-47.80959155741979	4.765013467039747	44.94699343150516	0	0
56	-2.153770664626248	89.90974889496707	-4.821074400661781	0	0.9399999999999999	0	44.65182053401041	-10.03405379042317	0	59.95345674401655	1.046385218135088	-5.004338423020131	0	0	44.65182053401041	-10.03405379042317	0	59.95345674401655	1.046385218135088	-5.004338423020131	0	0	1.159938726474851	0.1515350718405357	5.876897421684787	0	-12.58058782213325	0	75.99728516717559	44.94733817329655	0	0	-0.572812335563386	3.592694984582407	-42.94370931765768	1.074314694136912	44.94733817329655	0	0
57	-2.14426831680737	89.91039848829531	-4.797926185020886	0	0.9399999999999999	0	44.65409272342963	-10.03350185544115	0	59.95375909856823	1.046390495217523	-5.004253165861299	0	0	44.65409272342963	-10.03350185544115	0	59.95375909856823	1.046390495217523	-5.004253165861299	0	0	1.136976518476507	0.1374676480957465	5.81194361861302	0	-12.59012893123285	0	75.99077767007822	44.94805870985611	0	0	0.7710211845978494	4.465464268734533	-37.72135952127011	0.1572802137684927	44.94805870985611	0	0
58	-2.157774730228436	89.91043065719454	-4.793407317812743	0	0.9399999999999999	0	44.65723677773074	-10.03275676808079	0	59.95417548414827	1.046397762516853	-5.004139307317527	0	0	44.65723677773074	-10.03275676808079	0	59.95417548414827	1.046397762516853	-5.004139307317527	0	0	1.146479441205069	0.1349606975777197	5.816712933103785	0	-12.60337742962669	0	75.98177319113506	44.9490387158616	0	0	1.865746801502614	4.779272107905653	-31.55551997053252	0.05579135942268993	44.9490387158616	0	0
59	-2.18374532555762	89.91099906118039	-4.771414966475546	0	0.9399999999999999	0	44.66095127768843	-10.03189009747021	0	59.95466683840312	1.046406338266394	-5.004007701578303	0	0	44.66095127768843	-10.03189009747021	0	59.95466683840312	1.046406338266394	-5.004007701578303	0	0	1.148481027832786	0.1351090446577311	5.823650490096366	0	-12.6190810730344	0	75.97113499229903	44.95018369374558	0	0	1.931393281763908	4.281015071382026	-24.35278618960604	0.04494277685107521	44.95018369374558	0	0
60	-2.196694169143208	89.91112008623045	-4.755452362015318	0	0.9399999999999999	0	44.66410940948606	-10.03116365124937	0	59.95508540856171	1.046413643693811	-5.003897817733015	0	0	44.66410940948606	-10.03116365124937	0	59.95508540856171	1.046413643693811	-5.003897817733015	0	0	1.142469223322415	0.1295693469718763	5.817773866164549	0	-12.63249880754966	0	75.96209023440309	44.95114648085761	0	0	2.202513900605119	4.387966793131812	-17.63805051182447	0.03610874386527384	44.95114648085761	0	0
61	-2.211360051512121	89.9113588303826	-4.738637925391396	0	0.9399999999999999	0	44.6667415661253	-10.03057310925279	0	59.95543507167528	1.046419746466416	-5.003809247676326	0	0	44.6667415661253	-10.03057310925279	0	59.95543507167528	1.046419746466416	-5.003809247676326	0	0	1.141240802017281	0.1246816962835398	5.814299692769764	0	-12.64375717494919	0	75.95455187224049	44.95193416622837	0	0	1.826665825391397	4.019315212006275	-11.63256563610573	0.03689882036732779	44.95193416622837	0	0
62	-2.220329419722236	89.91027656042327	-4.723374133720176	0	0.9399999999999999	0	44.66885121758634	-10.03010845742643	0	59.95571646101403	1.046424657636857	-5.003739927552457	0	0	44.66885121758634	-10.03010845742643	0	59.95571646101403	1.046424657636857	-5.003739927552457	0	0	1.142941318564041	0.1333677388440458	5.820844709592725	0	-12.65283593904006	0	75.94850995547823	44.95255658655894	0	0	0.9937795265335816	4.297944381540687	-5.838035042689867	0.04301183235470993	44.95255658655894	0	0
63	-2.235585273564843	89.91092310115863	-4.718020564299615	0	0.9399999999999999	0	44.67044532961214	-10.029750948754	0	59.95592571061636	1.046428309731376	-5.003686412035104	0	0	44.67044532961214	-10.029750948754	0	59.95592571061636	1.046428309731376	-5.003686412035104	0	0	1.148539741946297	0.1359045050359637	5.821165380807185	0	-12.65963809482335	0	75.94394449514735	44.95303391136061	0	0	0.1762557262373509	3.859788327824109	-1.767401749861744	0.05583578598311682	44.95303391136061	0	0
64	-2.234198082844226	89.91103064660865	-4.707370389708212	0	0.9399999999999999	0	44.67239323289574	-10.02933443090025	0	59.95618521699599	1.046432838972131	-5.003624997424708	0	0	44.67239323289574	-10.02933443090025	0	59.95618521699599	1.046432838972131	-5.003624997424708	0	0	1.143548778189558	0.1227361327510223	5.80491811458508	0	-12.66807322246532	0	75.93836583238108	44.95359651621283	0	0	-0.5021466762110427	1.659560326690722	2.27989359677624	0.09239888783860972	44.95359651621283	0	0
65	-2.235773795519645	89.91069090731618	-4.716134561286447	0	0.9399999999999999	0	44.67251389010394	-10.02929654851741	0	59.95619788593567	1.046433060086841	-5.003618886666433	0	0	44.67251389010394	-10.02929654851741	0	59.95619788593567	1.046433060086841	-5.003618886666433	0	0	1.147278933067774	0.1367280649132438	5.819850606290945	0	-12.66851218709365	0	75.9380202525045	44.95364388965379	0	0	-0.5196254624065308	1.685219162834206	2.859714232935796	0.09108667254721747	44.95364388965379	0	0
66	-2.277979444992902	89.90674263132533	-4.672661573109672	0	0.9399999999999999	0	44.68394781980962	-10.02551947698179	0	59.95739633982762	1.046453977053189	-5.003017260579731	0	0	44.68394781980962	-10.02551947698179	0	59.95739633982762	1.046453977053189	-5.003017260579731	0	0	1.103581221350019	0.1636417485625954	5.815075751979053	0	-12.7080339485723	0	75.90527142932744	44.95837468992362	0	0	-0.4936417939404948	1.152712562939039	3.43937678215384	0.0991109564817972	44.95837468992362	0	0
67	-2.274565878429186	89.91095294588938	-4.676675353809177	0	0.9399999999999999	0	44.6840632248598	-10.02548680213279	0	59.9574085540191	1.046454190231046	-5.003012217556746	0	0	44.6840632248598	-10.02548680213279	0	59.9574085540191	1.046454190231046	-5.003012217556746	0	0	1.14622260189667	0.1331512245685565	5.813512807595209	0	-12.70846168410994	0	75.90494089726697	44.9584168227426	0	0	-0.5338758056165359	1.110613654909856	2.870193641586225	0.1017265771145738	44.9584168227426	0	0
68	-2.272119717522209	89.91076263860887	-4.680778278277813	0	0.9399999999999999	0	44.68415188311106	-10.02546170669722	0	59.95741793157374	1.04645435390025	-5.003008345547043	0	0	44.68415188311106	-10.02546170669722	0	59.95741793157374	1.04645435390025	-5.003008345547043	0	0	1.145069043121659	0.1344754679085846	5.820929313340907	0	-12.7087901797233	0	75.90468697080887	44.95844918807276	0	0	-0.5321206547803271	1.110379906188962	2.868886058782536	0.1014422970931539	44.95844918807276	0	0
69	-2.268848927359099	89.91090864069835	-4.684252726532763	0	0.9399999999999999	0	44.68424470685967	-10.02543544868179	0	59.95742774976458	1.046454525260007	-5.003004295315918	0	0	44.68424470685967	-10.02543544868179	0	59.95742774976458	1.046454525260007	-5.003004295315918	0	0	1.145580819855492	0.1241995024827461	5.821333292757633	0	-12.7091341426004	0	75.90442111395703	44.9584830592823	0	0	-0.5237677363678001	1.095270053244627	2.868931388462488	0.1018401785768544	44.9584830592823	0	0
70	-2.263328469749127	89.91088159266604	-4.685744695246633	0	0.9399999999999999	0	44.6843592356535	-10.02540309964682	0	59.95743987411342	1.046454736869814	-5.002999307646885	0	0	44.6843592356535	-10.02540309964682	0	59.95743987411342	1.046454736869814	-5.002999307646885	0	0	1.146496989497728	0.136519137704921	5.816545127016133	0	-12.70955883576798	0	75.90409309170508	44.95852480112114	0	0	-0.5226863199233973	1.10553955266463	2.301072322226927	0.1028054518176736	44.95852480112114	0	0
71	-2.267534992593427	89.91001709540713	-4.695909143394926	0	0.9399999999999999	0	44.68444193461829	-10.02537977815327	0	59.95744863550831	1.046454889785001	-5.002995713584334	0	0	44.68444193461829	-10.02537977815327	0	59.95744863550831	1.046454889785001	-5.002995713584334	0	0	1.144576242930677	0.1302796327841988	5.834890450583366	0	-12.70986569395916	0	75.9038562334281	44.95855490518427	0	0	-0.5314551565855904	1.095137914095947	2.879897949050902	0.1020110897871855	44.95855490518427	0	0
72	-2.258043350729575	89.9107482597239	-4.693703722128754	0	0.9399999999999999	0	44.68455983440263	-10.02534652861481	0	59.9574611180051	1.046455107645669	-5.002990590524701	0	0	44.68455983440263	-10.02534652861481	0	59.9574611180051	1.046455107645669	-5.002990590524701	0	0	1.147013310378258	0.1369972615877043	5.8210628388946	0	-12.71030301221813	0	75.90351855639011	44.95859782873735	0	0	-0.5221857396979833	1.104038872554788	2.298824292532262	0.1027438422893765	44.95859782873735	0	0
73	-2.256047092325928	89.91070694159572	-4.697615851574729	0	0.9399999999999999	0	44.68463133978626	-10.02532637352156	0	59.95746868535759	1.046455239720886	-5.002987486176555	0	0	44.68463133978626	-10.02532637352156	0	59.95746868535759	1.046455239720886	-5.002987486176555	0	0	1.146708055711145	0.1380608190623607	5.820898245318007	0	-12.7105681929438	0	75.90331375766139	44.95862385393184	0	0	-0.5228690256588586	1.107575343813693	2.296990164551772	0.1026589684429771	44.95862385393184	0	0
